<?xml version="1.0" encoding="utf-8"?>
<!-- Generator: Adobe Illustrator 21.0.0, SVG Export Plug-In . SVG Version: 6.00 Build 0)  -->
<svg version="1.1" id="Capa_1" xmlns="http://www.w3.org/2000/svg" xmlns:xlink="http://www.w3.org/1999/xlink" x="0px" y="0px"
	 viewBox="0 0 33.7 21" style="enable-background:new 0 0 33.7 21;" xml:space="preserve">
<style type="text/css">
	.st0{fill:#1C1B1B;}
</style>
<g>
	<path id="Behance" class="st0" d="M30.4,3H22V0.9h8.5L30.4,3C30.4,3,30.4,3,30.4,3z M16.3,11.6c0.5,0.8,0.8,1.9,0.8,3.1
		c0,1.2-0.3,2.4-0.9,3.4c-0.4,0.7-0.9,1.2-1.5,1.6c-0.7,0.5-1.5,0.9-2.4,1.1c-0.9,0.2-1.9,0.3-3,0.3h-9.5V0h10.1
		c2.6,0,4.4,0.8,5.4,2.2c0.6,0.9,1,2,1,3.2c0,1.3-0.3,2.3-1,3.1c-0.4,0.4-0.9,0.8-1.6,1.2C15,10.1,15.8,10.7,16.3,11.6z M4.8,8.3
		h4.4c0.9,0,1.7-0.2,2.2-0.5c0.6-0.3,0.9-1,0.9-1.8c0-1-0.4-1.6-1.1-1.9c-0.6-0.2-1.5-0.3-2.5-0.3H4.8V8.3z M12.7,14.4
		c0-1.1-0.4-1.8-1.3-2.2c-0.5-0.2-1.2-0.3-2.1-0.4H4.8v5.6h4.4c0.9,0,1.6-0.1,2.1-0.4C12.3,16.5,12.7,15.7,12.7,14.4z M33.6,10.9
		c0.1,0.7,0.1,1.7,0.1,3h-11c0.1,1.5,0.6,2.6,1.6,3.2c0.6,0.4,1.3,0.6,2.2,0.6c0.9,0,1.6-0.2,2.2-0.7c0.3-0.2,0.6-0.6,0.8-1h4
		c-0.1,0.9-0.6,1.8-1.5,2.7c-1.3,1.5-3.2,2.2-5.7,2.2c-2,0-3.8-0.6-5.3-1.9c-1.5-1.2-2.3-3.2-2.3-6c0-2.6,0.7-4.6,2.1-6
		c1.4-1.4,3.2-2.1,5.4-2.1c1.3,0,2.5,0.2,3.5,0.7c1,0.5,1.9,1.2,2.6,2.2C33,8.7,33.4,9.8,33.6,10.9z M29.6,11.3
		c-0.1-1-0.4-1.8-1.1-2.4c-0.6-0.5-1.4-0.8-2.3-0.8c-1,0-1.8,0.3-2.3,0.9c-0.6,0.6-0.9,1.3-1,2.3L29.6,11.3L29.6,11.3z"/>
</g>
</svg>
