<?xml version="1.0" encoding="utf-8"?>
<!-- Generator: Adobe Illustrator 21.0.0, SVG Export Plug-In . SVG Version: 6.00 Build 0)  -->
<svg version="1.1" id="Layer_1" xmlns="http://www.w3.org/2000/svg" xmlns:xlink="http://www.w3.org/1999/xlink" x="0px" y="0px"
	 viewBox="0 0 23 23" style="enable-background:new 0 0 23 23;" xml:space="preserve">
<style type="text/css">
	.st0{fill:#1C1B1B;}
</style>
<g>
	<path class="st0" d="M16.7,0H6.3C2.8,0,0,2.8,0,6.3v10.3C0,20.2,2.8,23,6.3,23h10.3c3.5,0,6.3-2.8,6.3-6.3V6.3
		C23,2.8,20.2,0,16.7,0z M21,16.7C21,19,19,21,16.7,21H6.3C4,21,2,19,2,16.7V6.3C2,4,4,2,6.3,2h10.3C19,2,21,4,21,6.3L21,16.7
		L21,16.7z"/>
	<path class="st0" d="M11.5,5.6c-3.3,0-5.9,2.7-5.9,5.9c0,3.3,2.7,5.9,5.9,5.9s5.9-2.7,5.9-5.9C17.4,8.2,14.8,5.6,11.5,5.6z
		 M11.5,15.4c-2.1,0-3.9-1.7-3.9-3.9c0-2.1,1.7-3.9,3.9-3.9s3.9,1.7,3.9,3.9C15.4,13.6,13.6,15.4,11.5,15.4z"/>
	<path class="st0" d="M17.7,3.8c-0.4,0-0.8,0.2-1.1,0.4c-0.3,0.3-0.4,0.7-0.4,1.1c0,0.4,0.2,0.8,0.4,1.1c0.3,0.3,0.7,0.4,1.1,0.4
		c0.4,0,0.8-0.2,1.1-0.4c0.3-0.3,0.4-0.7,0.4-1.1c0-0.4-0.2-0.8-0.4-1.1C18.5,4,18.1,3.8,17.7,3.8z"/>
</g>
</svg>
