<?xml version="1.0" encoding="utf-8"?>
<!-- Generator: Adobe Illustrator 22.0.0, SVG Export Plug-In . SVG Version: 6.00 Build 0)  -->
<svg version="1.1" id="Layer_1" xmlns="http://www.w3.org/2000/svg" xmlns:xlink="http://www.w3.org/1999/xlink" x="0px" y="0px"
	 viewBox="0 0 23 23" style="enable-background:new 0 0 23 23;" xml:space="preserve">
<path d="M11.6,5.7c-3.2,0-5.8,2.5-5.8,5.7s2.5,5.8,5.7,5.8s5.8-2.5,5.8-5.7C17.4,8.4,14.8,5.7,11.6,5.7z M11.5,14.4
	c-1.6,0-2.9-1.3-2.9-3c0-1.6,1.3-2.9,3-2.9c1.6,0,2.9,1.3,2.9,3C14.5,13.1,13.2,14.4,11.5,14.4z"/>
<path d="M11.5,0L11.5,0L11.5,0H4H1.6H1C0.4,0,0,0.4,0,1v0.6v1.9v8.1C0,17.9,5.1,23,11.5,23S23,17.9,23,11.5S17.9,0,11.5,0z
	 M3.6,11.3c0-4.4,3.7-8,8.1-7.9c4.4,0,8,3.7,7.9,8.1c0,4.4-3.7,8-8.1,7.9C7.1,19.4,3.6,15.8,3.6,11.3z"/>
</svg>
