<?xml version="1.0" encoding="utf-8"?>
<!-- Generator: Adobe Illustrator 21.0.0, SVG Export Plug-In . SVG Version: 6.00 Build 0)  -->
<svg version="1.1" id="Layer_1" xmlns="http://www.w3.org/2000/svg" xmlns:xlink="http://www.w3.org/1999/xlink" x="0px" y="0px"
	 viewBox="0 0 28 28" style="enable-background:new 0 0 28 28;" xml:space="preserve">
<style type="text/css">
	.st0{fill:#FFFFFF;}
</style>
<g>
	<path class="st0" d="M22.4,28c-2.5,0-5.1-0.7-7.8-2.1c-2.5-1.3-5-3.1-7.2-5.3s-4-4.7-5.3-7.2C0.7,10.7,0,8.1,0,5.6
		C0,4,1.5,2.4,2.1,1.8C3.1,1,4.5,0,5.6,0c0.5,0,1.1,0.3,1.9,1.1c0.6,0.6,1.3,1.3,1.9,2.2c0.4,0.5,2.4,3.2,2.4,4.5
		c0,1-1.2,1.8-2.4,2.5c-0.5,0.3-1,0.6-1.3,0.9c-0.4,0.3-0.5,0.5-0.5,0.5C9,15,13,19,16.3,20.3c0,0,0.2-0.1,0.5-0.5
		c0.3-0.4,0.6-0.9,0.9-1.3c0.8-1.3,1.5-2.4,2.5-2.4c1.3,0,3.9,2,4.5,2.4c0.9,0.7,1.6,1.3,2.2,1.9c0.7,0.8,1.1,1.4,1.1,1.9
		c0,1.1-1,2.5-1.8,3.5C25.5,26.5,24,28,22.4,28L22.4,28z"/>
</g>
</svg>
