<?xml version="1.0" encoding="utf-8"?>
<!-- Generator: Adobe Illustrator 21.0.0, SVG Export Plug-In . SVG Version: 6.00 Build 0)  -->
<svg version="1.1" id="Capa_1" xmlns="http://www.w3.org/2000/svg" xmlns:xlink="http://www.w3.org/1999/xlink" x="0px" y="0px"
	 viewBox="0 0 17.9 23" style="enable-background:new 0 0 17.9 23;" xml:space="preserve">
<style type="text/css">
	.st0{fill:#1C1B1B;}
</style>
<g>
	<g>
		<g>
			<path class="st0" d="M17.8,6.4c-0.6-4.5-5.2-6.9-10-6.3C4,0.5,0.2,3.6,0,8c-0.1,2.7,0.7,4.7,3.2,5.3c1.1-2-0.4-2.4-0.6-3.8
				C1.7,3.7,9.4-0.3,13.4,3.8c2.8,2.8,0.9,11.5-3.5,10.6C5.6,13.5,12,6.6,8.5,5.2c-2.8-1.1-4.3,3.4-2.9,5.6
				C4.8,14.6,3.2,18.2,3.8,23c2.2-1.6,2.9-4.6,3.5-7.8c1.1,0.7,1.7,1.4,3.1,1.5C15.6,17.1,18.5,11.5,17.8,6.4z"/>
		</g>
	</g>
</g>
</svg>
