<?xml version="1.0" encoding="utf-8"?>
<!-- Generator: Adobe Illustrator 21.0.0, SVG Export Plug-In . SVG Version: 6.00 Build 0)  -->
<svg version="1.1" id="Layer_1" xmlns="http://www.w3.org/2000/svg" xmlns:xlink="http://www.w3.org/1999/xlink" x="0px" y="0px"
	 viewBox="0 0 23 23" style="enable-background:new 0 0 23 23;" xml:space="preserve">
<style type="text/css">
	.st0{fill:#FFFFFF;}
</style>
<g>
	<path class="st0" d="M22.7,21.4l-5.5-5.5c1.4-1.7,2.2-3.8,2.2-6.1C19.4,4.3,15,0,9.7,0C4.3,0,0,4.3,0,9.7s4.3,9.7,9.7,9.7
		c2.3,0,4.5-0.8,6.1-2.2l5.5,5.5c0.4,0.4,1,0.4,1.4,0C23.1,22.3,23.1,21.7,22.7,21.4z M9.7,17.5c-4.3,0-7.8-3.5-7.8-7.8
		s3.5-7.8,7.8-7.8c4.3,0,7.8,3.5,7.8,7.8S14,17.5,9.7,17.5z"/>
</g>
</svg>
