<?xml version="1.0" encoding="utf-8"?>
<!-- Generator: Adobe Illustrator 21.0.0, SVG Export Plug-In . SVG Version: 6.00 Build 0)  -->
<svg version="1.1" id="Capa_1" xmlns="http://www.w3.org/2000/svg" xmlns:xlink="http://www.w3.org/1999/xlink" x="0px" y="0px"
	 viewBox="0 0 24.2 21" style="enable-background:new 0 0 24.2 21;" xml:space="preserve">
<style type="text/css">
	.st0{fill:#FFFFFF;}
</style>
<g>
	<path id="Vimeo" class="st0" d="M20.7,0c-3.4-0.1-5.6,1.8-6.8,5.7c0.6-0.3,1.2-0.4,1.8-0.4c1.2,0,1.8,0.7,1.6,2.1
		c-0.1,0.8-0.6,2.1-1.6,3.7c-1,1.6-1.8,2.4-2.3,2.4c-0.7,0-1.3-1.2-1.8-3.7c-0.2-0.7-0.5-2.6-1-5.6C10.2,1.4,9,0.1,7.1,0.3
		c-0.8,0.1-2,0.8-3.6,2.2C2.4,3.5,1.2,4.6,0,5.6l1.1,1.5C2.2,6.3,2.9,5.9,3,5.9c0.8,0,1.6,1.3,2.3,3.9c0.6,2.4,1.3,4.8,2,7.2
		c1,2.6,2.2,3.9,3.6,3.9c2.3,0,5.1-2.1,8.4-6.4c3.2-4.1,4.8-7.3,4.9-9.7C24.4,1.7,23.2,0.1,20.7,0z"/>
</g>
</svg>
